# xmcd
#
# Track frame offsets: 
#        150
#        11286
#        30719
#        42063
#        57383
#        71690
#        78563
#        95308
#        107655
#        115792
#        139130
#        152223
#        163151
#        183384
#        233620
#        250196
#        285599
#        305713
#
# Disc length: 4327 seconds
#
# Revision: 0
# Processed by: cddbd v1.5.2PL0 Copyright (c) Steve Scherf et al.
# Submitted via: ExactAudioCopy v1.0b3
#
DISCID=ed10e512
DTITLE=Johann Sebastian Bach - J.S. Bach Six Suites for Solo Cello
DYEAR=1900
DGENRE=Classical
TTITLE0=Suite I in G Major Prelude
TTITLE1=Suite I in G Major Allemande
TTITLE2=Suite I in G Major Courante
TTITLE3=Suite I in G Major Sarabande
TTITLE4=Suite I in G Major Menuet I Menuet II
TTITLE5=Suite I in G Major Gigue
TTITLE6=Suite II in D Minor Prelude
TTITLE7=Suite II in D Minor Allemande
TTITLE8=Suite II in D Minor Courante
TTITLE9=Suite II in D Minor Sarabande
TTITLE10=Suite II in D Minor Menuet I Menuet II
TTITLE11=Suite II in D Minor Gigue
TTITLE12=Suite VI in D Major Prelude
TTITLE13=Suite VI in D Major Allemande
TTITLE14=Suite VI in D Major Courante
TTITLE15=Suite VI in D Major Sarabande
TTITLE16=Suite VI in D Major Gavotte I Gavotte II
TTITLE17=Suite VI in D Major Gigue
EXTD=
EXTT0=
EXTT1=
EXTT2=
EXTT3=
EXTT4=
EXTT5=
EXTT6=
EXTT7=
EXTT8=
EXTT9=
EXTT10=
EXTT11=
EXTT12=
EXTT13=
EXTT14=
EXTT15=
EXTT16=
EXTT17=
PLAYORDER=
